<mxfile host="app.diagrams.net" modified="2024-03-02T21:14:12.414Z" agent="Mozilla/5.0 (Windows NT 10.0; Win64; x64) AppleWebKit/537.36 (KHTML, like Gecko) Chrome/122.0.0.0 Safari/537.36" etag="iLvMEkERAbORpsrWfGCy" version="24.0.1" type="github">
  <diagram name="Page-1" id="7a6c530e-6e37-e111-ec74-82921da8cc10">
    <mxGraphModel dx="4393.5" dy="2543" grid="1" gridSize="10" guides="1" tooltips="1" connect="1" arrows="1" fold="1" page="1" pageScale="1.5" pageWidth="1169" pageHeight="826" background="#184380" math="0" shadow="0">
      <root>
        <mxCell id="0" style=";html=1;" />
        <mxCell id="1" style=";html=1;" parent="0" />
        <mxCell id="23046e2b9bb16c14-116" value="Azure Group" style="whiteSpace=wrap;html=1;rounded=1;shadow=0;strokeColor=none;strokeWidth=2;fillColor=#009BFF;fontSize=20;fontColor=#FFFFFF;align=center;arcSize=3;verticalAlign=top;spacingTop=4;" parent="1" vertex="1">
          <mxGeometry x="287" y="217" width="1180" height="550" as="geometry" />
        </mxCell>
        <mxCell id="23046e2b9bb16c14-64" value="Web role instances" style="rounded=1;whiteSpace=wrap;html=1;shadow=0;strokeWidth=2;fillColor=#0072BC;fontSize=12;fontColor=#FFFFFF;align=center;strokeColor=none;arcSize=3;verticalAlign=top;" parent="1" vertex="1">
          <mxGeometry x="1286" y="291" width="150" height="420" as="geometry" />
        </mxCell>
        <mxCell id="23046e2b9bb16c14-27" value="" style="rounded=1;whiteSpace=wrap;html=1;shadow=0;strokeWidth=2;fillColor=#8BC63E;fontSize=12;fontColor=#000000;align=center;strokeColor=none;arcSize=3;" parent="1" vertex="1">
          <mxGeometry x="726" y="291" width="530" height="420" as="geometry" />
        </mxCell>
        <mxCell id="23046e2b9bb16c14-2" value="" style="rounded=1;whiteSpace=wrap;html=1;shadow=0;strokeWidth=2;fillColor=none;fontSize=12;fontColor=#000000;align=center;strokeColor=#FFFFFF;arcSize=10;" parent="1" vertex="1">
          <mxGeometry x="876" y="420" width="160" height="241" as="geometry" />
        </mxCell>
        <mxCell id="23046e2b9bb16c14-54" value="Availability set" style="rounded=1;whiteSpace=wrap;html=1;shadow=0;strokeWidth=2;fillColor=none;fontSize=11;fontColor=#FFFFFF;align=center;strokeColor=#FFFFFF;dashed=1;verticalAlign=top;" parent="1" vertex="1">
          <mxGeometry x="956" y="441" width="70" height="211" as="geometry" />
        </mxCell>
        <mxCell id="23046e2b9bb16c14-28" value="On-premises networks" style="rounded=1;whiteSpace=wrap;html=1;shadow=0;strokeWidth=2;fillColor=#F04D22;fontSize=12;fontColor=#FFFFFF;align=center;strokeColor=none;arcSize=6;verticalAlign=top;" parent="1" vertex="1">
          <mxGeometry x="466" y="378" width="230" height="330" as="geometry" />
        </mxCell>
        <mxCell id="23046e2b9bb16c14-49" value="" style="rounded=1;whiteSpace=wrap;html=1;shadow=0;strokeWidth=2;fillColor=none;fontSize=12;fontColor=#000000;align=center;strokeColor=#FFFFFF;" parent="1" vertex="1">
          <mxGeometry x="486" y="410" width="80" height="218" as="geometry" />
        </mxCell>
        <mxCell id="23046e2b9bb16c14-1" value="" style="rounded=1;whiteSpace=wrap;html=1;shadow=0;strokeWidth=2;fillColor=none;fontSize=12;fontColor=#000000;align=center;strokeColor=#FFFFFF;" parent="1" vertex="1">
          <mxGeometry x="746" y="420" width="110" height="221" as="geometry" />
        </mxCell>
        <mxCell id="24964f25f45c63f1-1" value="" style="verticalLabelPosition=bottom;html=1;verticalAlign=top;strokeColor=none;fillColor=#FFFFFF;shape=mxgraph.azure.computer;rounded=0;shadow=0;fontSize=12;fontColor=#000000;align=center;" parent="1" vertex="1">
          <mxGeometry x="501" y="424" width="50" height="45" as="geometry" />
        </mxCell>
        <mxCell id="24964f25f45c63f1-2" value="" style="verticalLabelPosition=bottom;html=1;verticalAlign=top;strokeColor=none;fillColor=#FFFFFF;shape=mxgraph.azure.computer;rounded=0;shadow=0;fontSize=12;fontColor=#000000;align=center;" parent="1" vertex="1">
          <mxGeometry x="501" y="494" width="50" height="45" as="geometry" />
        </mxCell>
        <mxCell id="24964f25f45c63f1-3" value="" style="verticalLabelPosition=bottom;html=1;verticalAlign=top;strokeColor=none;fillColor=#FFFFFF;shape=mxgraph.azure.computer;rounded=0;shadow=0;fontSize=12;fontColor=#000000;align=center;" parent="1" vertex="1">
          <mxGeometry x="501" y="564" width="50" height="45" as="geometry" />
        </mxCell>
        <mxCell id="23046e2b9bb16c14-73" style="html=1;startArrow=none;startFill=0;startSize=10;endArrow=none;endFill=0;endSize=10;strokeWidth=3;fontSize=11;fontColor=#FFFFFF;strokeColor=#FFFFFF;rounded=0;" parent="1" source="24964f25f45c63f1-5" target="23046e2b9bb16c14-7" edge="1">
          <mxGeometry relative="1" as="geometry" />
        </mxCell>
        <mxCell id="24964f25f45c63f1-5" value="Gateway" style="shadow=0;dashed=0;html=1;strokeColor=none;shape=mxgraph.mscae.enterprise.gateway;fillColor=#FFFFFF;rounded=0;fontSize=12;fontColor=#FFFFFF;align=center;labelPosition=center;verticalLabelPosition=top;verticalAlign=bottom;" parent="1" vertex="1">
          <mxGeometry x="773" y="541" width="50" height="50" as="geometry" />
        </mxCell>
        <mxCell id="24964f25f45c63f1-6" value="" style="shadow=0;dashed=0;html=1;strokeColor=none;shape=mxgraph.mscae.enterprise.lock;fillColor=#FFFFFF;rounded=0;fontSize=12;fontColor=#000000;align=center;" parent="1" vertex="1">
          <mxGeometry x="896" y="436" width="39" height="50" as="geometry" />
        </mxCell>
        <mxCell id="23046e2b9bb16c14-7" value="" style="shadow=0;dashed=0;html=1;strokeColor=none;labelPosition=center;verticalLabelPosition=bottom;verticalAlign=top;shape=mxgraph.mscae.cloud.azure_load_balancer_feature;fillColor=#FFFFFF;rounded=1;fontSize=12;fontColor=#000000;align=center;" parent="1" vertex="1">
          <mxGeometry x="891" y="541" width="50" height="50" as="geometry" />
        </mxCell>
        <mxCell id="23046e2b9bb16c14-75" style="html=1;startArrow=none;startFill=0;startSize=10;endArrow=none;endFill=0;endSize=10;strokeWidth=3;fontSize=11;fontColor=#FFFFFF;entryX=0.793;entryY=0.26;entryPerimeter=0;strokeColor=#FFFFFF;rounded=0;" parent="1" source="23046e2b9bb16c14-29" target="23046e2b9bb16c14-7" edge="1">
          <mxGeometry relative="1" as="geometry" />
        </mxCell>
        <mxCell id="23046e2b9bb16c14-29" value="" style="verticalLabelPosition=bottom;html=1;verticalAlign=top;strokeColor=none;fillColor=#FFFFFF;shape=mxgraph.azure.virtual_machine;rounded=1;shadow=0;fontSize=12;fontColor=#000000;align=center;" parent="1" vertex="1">
          <mxGeometry x="966" y="493" width="50" height="40" as="geometry" />
        </mxCell>
        <mxCell id="23046e2b9bb16c14-76" style="html=1;entryX=1.016;entryY=0.509;entryPerimeter=0;startArrow=none;startFill=0;startSize=10;endArrow=none;endFill=0;endSize=10;strokeWidth=3;fontSize=11;fontColor=#FFFFFF;strokeColor=#FFFFFF;rounded=0;" parent="1" source="23046e2b9bb16c14-30" target="23046e2b9bb16c14-7" edge="1">
          <mxGeometry relative="1" as="geometry" />
        </mxCell>
        <mxCell id="23046e2b9bb16c14-30" value="" style="verticalLabelPosition=bottom;html=1;verticalAlign=top;strokeColor=none;fillColor=#FFFFFF;shape=mxgraph.azure.virtual_machine;rounded=1;shadow=0;fontSize=12;fontColor=#000000;align=center;" parent="1" vertex="1">
          <mxGeometry x="966" y="546" width="50" height="40" as="geometry" />
        </mxCell>
        <mxCell id="23046e2b9bb16c14-77" style="html=1;entryX=0.802;entryY=0.762;entryPerimeter=0;startArrow=none;startFill=0;startSize=10;endArrow=none;endFill=0;endSize=10;strokeWidth=3;fontSize=11;fontColor=#FFFFFF;strokeColor=#FFFFFF;rounded=0;" parent="1" source="23046e2b9bb16c14-31" target="23046e2b9bb16c14-7" edge="1">
          <mxGeometry relative="1" as="geometry" />
        </mxCell>
        <mxCell id="23046e2b9bb16c14-31" value="" style="verticalLabelPosition=bottom;html=1;verticalAlign=top;strokeColor=none;fillColor=#FFFFFF;shape=mxgraph.azure.virtual_machine;rounded=1;shadow=0;fontSize=12;fontColor=#000000;align=center;" parent="1" vertex="1">
          <mxGeometry x="966" y="598" width="50" height="40" as="geometry" />
        </mxCell>
        <mxCell id="23046e2b9bb16c14-48" value="Azure Vnet" style="shadow=0;dashed=0;html=1;strokeColor=none;fillColor=#FFFFFF;labelPosition=center;verticalLabelPosition=bottom;verticalAlign=top;shape=mxgraph.office.clouds.azure;rounded=1;fontSize=12;fontColor=#FFFFFF;align=center;" parent="1" vertex="1">
          <mxGeometry x="756" y="311" width="83" height="53" as="geometry" />
        </mxCell>
        <mxCell id="23046e2b9bb16c14-50" value="" style="rounded=1;whiteSpace=wrap;html=1;shadow=0;strokeWidth=2;fillColor=none;fontSize=12;fontColor=#000000;align=center;strokeColor=#FFFFFF;" parent="1" vertex="1">
          <mxGeometry x="596" y="409" width="80" height="218" as="geometry" />
        </mxCell>
        <mxCell id="23046e2b9bb16c14-51" value="" style="verticalLabelPosition=bottom;html=1;verticalAlign=top;strokeColor=none;fillColor=#FFFFFF;shape=mxgraph.azure.computer;rounded=0;shadow=0;fontSize=12;fontColor=#000000;align=center;" parent="1" vertex="1">
          <mxGeometry x="611" y="423" width="50" height="45" as="geometry" />
        </mxCell>
        <mxCell id="23046e2b9bb16c14-52" value="" style="verticalLabelPosition=bottom;html=1;verticalAlign=top;strokeColor=none;fillColor=#FFFFFF;shape=mxgraph.azure.computer;rounded=0;shadow=0;fontSize=12;fontColor=#000000;align=center;" parent="1" vertex="1">
          <mxGeometry x="611" y="493" width="50" height="45" as="geometry" />
        </mxCell>
        <mxCell id="23046e2b9bb16c14-53" value="" style="verticalLabelPosition=bottom;html=1;verticalAlign=top;strokeColor=none;fillColor=#FFFFFF;shape=mxgraph.azure.computer;rounded=0;shadow=0;fontSize=12;fontColor=#000000;align=center;" parent="1" vertex="1">
          <mxGeometry x="611" y="563" width="50" height="45" as="geometry" />
        </mxCell>
        <mxCell id="23046e2b9bb16c14-71" style="edgeStyle=orthogonalEdgeStyle;html=1;startArrow=none;startFill=0;startSize=10;endArrow=none;endFill=0;endSize=10;strokeWidth=3;fontSize=11;fontColor=#FFFFFF;strokeColor=#FFFFFF;dashed=1;rounded=0;" parent="1" source="24964f25f45c63f1-4" target="24964f25f45c63f1-5" edge="1">
          <mxGeometry relative="1" as="geometry">
            <Array as="points">
              <mxPoint x="581" y="730" />
              <mxPoint x="798" y="730" />
            </Array>
          </mxGeometry>
        </mxCell>
        <mxCell id="24964f25f45c63f1-4" value="Gateway" style="shadow=0;dashed=0;html=1;strokeColor=none;shape=mxgraph.mscae.enterprise.gateway;fillColor=#FFFFFF;rounded=0;fontSize=12;fontColor=#FFFFFF;align=center;labelPosition=center;verticalLabelPosition=top;verticalAlign=bottom;" parent="1" vertex="1">
          <mxGeometry x="556" y="648" width="50" height="50" as="geometry" />
        </mxCell>
        <mxCell id="23046e2b9bb16c14-55" value="" style="rounded=1;whiteSpace=wrap;html=1;shadow=0;strokeWidth=2;fillColor=none;fontSize=12;fontColor=#000000;align=center;strokeColor=#FFFFFF;arcSize=9;" parent="1" vertex="1">
          <mxGeometry x="1071" y="420" width="160" height="241" as="geometry" />
        </mxCell>
        <mxCell id="23046e2b9bb16c14-56" value="&lt;span&gt;Availability set&lt;/span&gt;" style="rounded=1;whiteSpace=wrap;html=1;shadow=0;strokeWidth=2;fillColor=none;fontSize=11;fontColor=#FFFFFF;align=center;strokeColor=#FFFFFF;dashed=1;verticalAlign=top;" parent="1" vertex="1">
          <mxGeometry x="1151" y="441" width="70" height="211" as="geometry" />
        </mxCell>
        <mxCell id="23046e2b9bb16c14-57" value="" style="shadow=0;dashed=0;html=1;strokeColor=none;shape=mxgraph.mscae.enterprise.lock;fillColor=#FFFFFF;rounded=0;fontSize=12;fontColor=#000000;align=center;" parent="1" vertex="1">
          <mxGeometry x="1091" y="436" width="39" height="50" as="geometry" />
        </mxCell>
        <mxCell id="23046e2b9bb16c14-74" style="html=1;startArrow=none;startFill=0;startSize=10;endArrow=none;endFill=0;endSize=10;strokeWidth=3;fontSize=11;fontColor=#FFFFFF;strokeColor=#FFFFFF;rounded=0;edgeStyle=elbowEdgeStyle;elbow=vertical;" parent="1" source="23046e2b9bb16c14-58" target="23046e2b9bb16c14-2" edge="1">
          <mxGeometry relative="1" as="geometry" />
        </mxCell>
        <mxCell id="23046e2b9bb16c14-78" style="edgeStyle=orthogonalEdgeStyle;html=1;startArrow=none;startFill=0;startSize=10;endArrow=none;endFill=0;endSize=10;strokeWidth=3;fontSize=11;fontColor=#FFFFFF;strokeColor=#FFFFFF;rounded=0;" parent="1" source="23046e2b9bb16c14-58" target="23046e2b9bb16c14-60" edge="1">
          <mxGeometry relative="1" as="geometry" />
        </mxCell>
        <mxCell id="23046e2b9bb16c14-79" style="html=1;startArrow=none;startFill=0;startSize=10;endArrow=none;endFill=0;endSize=10;strokeWidth=3;fontSize=11;fontColor=#FFFFFF;strokeColor=#FFFFFF;rounded=0;exitX=0.796;exitY=0.241;exitPerimeter=0;" parent="1" source="23046e2b9bb16c14-58" target="23046e2b9bb16c14-59" edge="1">
          <mxGeometry relative="1" as="geometry" />
        </mxCell>
        <mxCell id="23046e2b9bb16c14-80" style="html=1;startArrow=none;startFill=0;startSize=10;endArrow=none;endFill=0;endSize=10;strokeWidth=3;fontSize=11;fontColor=#FFFFFF;strokeColor=#FFFFFF;rounded=0;exitX=0.789;exitY=0.767;exitPerimeter=0;" parent="1" source="23046e2b9bb16c14-58" target="23046e2b9bb16c14-61" edge="1">
          <mxGeometry relative="1" as="geometry" />
        </mxCell>
        <mxCell id="23046e2b9bb16c14-58" value="" style="shadow=0;dashed=0;html=1;strokeColor=none;labelPosition=center;verticalLabelPosition=bottom;verticalAlign=top;shape=mxgraph.mscae.cloud.azure_load_balancer_feature;fillColor=#FFFFFF;rounded=1;fontSize=12;fontColor=#000000;align=center;" parent="1" vertex="1">
          <mxGeometry x="1086" y="541" width="50" height="50" as="geometry" />
        </mxCell>
        <mxCell id="23046e2b9bb16c14-59" value="" style="verticalLabelPosition=bottom;html=1;verticalAlign=top;strokeColor=none;fillColor=#FFFFFF;shape=mxgraph.azure.virtual_machine;rounded=1;shadow=0;fontSize=12;fontColor=#000000;align=center;" parent="1" vertex="1">
          <mxGeometry x="1161" y="493" width="50" height="40" as="geometry" />
        </mxCell>
        <mxCell id="23046e2b9bb16c14-60" value="" style="verticalLabelPosition=bottom;html=1;verticalAlign=top;strokeColor=none;fillColor=#FFFFFF;shape=mxgraph.azure.virtual_machine;rounded=1;shadow=0;fontSize=12;fontColor=#000000;align=center;" parent="1" vertex="1">
          <mxGeometry x="1161" y="546" width="50" height="40" as="geometry" />
        </mxCell>
        <mxCell id="23046e2b9bb16c14-61" value="" style="verticalLabelPosition=bottom;html=1;verticalAlign=top;strokeColor=none;fillColor=#FFFFFF;shape=mxgraph.azure.virtual_machine;rounded=1;shadow=0;fontSize=12;fontColor=#000000;align=center;" parent="1" vertex="1">
          <mxGeometry x="1161" y="598" width="50" height="40" as="geometry" />
        </mxCell>
        <mxCell id="23046e2b9bb16c14-69" style="edgeStyle=orthogonalEdgeStyle;html=1;startArrow=none;startFill=0;startSize=10;endArrow=none;endFill=0;endSize=10;strokeWidth=3;fontSize=11;fontColor=#FFFFFF;strokeColor=#FFFFFF;dashed=1;rounded=0;" parent="1" source="23046e2b9bb16c14-62" target="23046e2b9bb16c14-63" edge="1">
          <mxGeometry relative="1" as="geometry" />
        </mxCell>
        <mxCell id="23046e2b9bb16c14-62" value="Firewall" style="shadow=0;dashed=0;html=1;strokeColor=none;labelPosition=right;verticalLabelPosition=middle;verticalAlign=middle;shape=mxgraph.office.concepts.firewall;fillColor=#FFFFFF;rounded=1;fontSize=11;fontColor=#FFFFFF;align=left;spacingLeft=5;" parent="1" vertex="1">
          <mxGeometry x="328" y="475" width="47" height="43" as="geometry" />
        </mxCell>
        <mxCell id="23046e2b9bb16c14-70" style="edgeStyle=orthogonalEdgeStyle;html=1;startArrow=none;startFill=0;startSize=10;endArrow=none;endFill=0;endSize=10;strokeWidth=3;fontSize=11;fontColor=#FFFFFF;strokeColor=#FFFFFF;dashed=1;rounded=0;" parent="1" source="24964f25f45c63f1-4" target="23046e2b9bb16c14-68" edge="1">
          <mxGeometry relative="1" as="geometry">
            <mxPoint x="606" y="730" as="sourcePoint" />
            <Array as="points">
              <mxPoint x="581" y="730" />
              <mxPoint x="1361" y="730" />
            </Array>
          </mxGeometry>
        </mxCell>
        <mxCell id="23046e2b9bb16c14-72" style="edgeStyle=orthogonalEdgeStyle;html=1;startArrow=none;startFill=0;startSize=10;endArrow=none;endFill=0;endSize=10;strokeWidth=3;fontSize=11;fontColor=#FFFFFF;strokeColor=#FFFFFF;dashed=1;rounded=0;" parent="1" source="23046e2b9bb16c14-63" target="24964f25f45c63f1-4" edge="1">
          <mxGeometry relative="1" as="geometry">
            <Array as="points">
              <mxPoint x="351" y="730" />
              <mxPoint x="581" y="730" />
            </Array>
          </mxGeometry>
        </mxCell>
        <mxCell id="23046e2b9bb16c14-63" value="Windows&lt;div&gt;Azure&lt;/div&gt;&lt;div&gt;Load&lt;/div&gt;&lt;div&gt;Balancer&lt;/div&gt;" style="verticalLabelPosition=middle;html=1;verticalAlign=middle;strokeColor=none;fillColor=#FFFFFF;shape=mxgraph.azure.azure_load_balancer;rounded=1;shadow=0;dashed=1;fontSize=11;fontColor=#FFFFFF;align=left;labelPosition=right;spacingLeft=5;" parent="1" vertex="1">
          <mxGeometry x="326" y="593" width="50" height="35" as="geometry" />
        </mxCell>
        <mxCell id="23046e2b9bb16c14-65" value="" style="shadow=0;dashed=0;html=1;strokeColor=none;shape=mxgraph.mscae.enterprise.web;fillColor=#FFFFFF;rounded=1;fontSize=11;fontColor=#FFFFFF;align=center;" parent="1" vertex="1">
          <mxGeometry x="1336" y="531" width="50" height="50" as="geometry" />
        </mxCell>
        <mxCell id="23046e2b9bb16c14-66" value="" style="shadow=0;dashed=0;html=1;strokeColor=none;shape=mxgraph.mscae.enterprise.web;fillColor=#FFFFFF;rounded=1;fontSize=11;fontColor=#FFFFFF;align=center;" parent="1" vertex="1">
          <mxGeometry x="1336" y="450" width="50" height="50" as="geometry" />
        </mxCell>
        <mxCell id="23046e2b9bb16c14-67" value="" style="shadow=0;dashed=0;html=1;strokeColor=none;shape=mxgraph.mscae.enterprise.web;fillColor=#FFFFFF;rounded=1;fontSize=11;fontColor=#FFFFFF;align=center;" parent="1" vertex="1">
          <mxGeometry x="1336" y="370" width="50" height="50" as="geometry" />
        </mxCell>
        <mxCell id="23046e2b9bb16c14-117" style="edgeStyle=orthogonalEdgeStyle;rounded=0;elbow=vertical;html=1;startArrow=none;startFill=0;startSize=10;endArrow=none;endFill=0;endSize=10;strokeColor=#FFFFFF;strokeWidth=3;fontSize=20;fontColor=#FFFFFF;entryX=0.004;entryY=0.516;entryPerimeter=0;" parent="1" source="23046e2b9bb16c14-68" target="23046e2b9bb16c14-65" edge="1">
          <mxGeometry relative="1" as="geometry">
            <mxPoint x="1520" y="590" as="targetPoint" />
            <Array as="points">
              <mxPoint x="1326" y="673" />
              <mxPoint x="1326" y="557" />
            </Array>
          </mxGeometry>
        </mxCell>
        <mxCell id="23046e2b9bb16c14-119" style="edgeStyle=orthogonalEdgeStyle;rounded=0;elbow=vertical;html=1;entryX=-0.002;entryY=0.494;entryPerimeter=0;startArrow=none;startFill=0;startSize=10;endArrow=none;endFill=0;endSize=10;strokeColor=#FFFFFF;strokeWidth=3;fontSize=20;fontColor=#FFFFFF;" parent="1" source="23046e2b9bb16c14-68" target="23046e2b9bb16c14-67" edge="1">
          <mxGeometry relative="1" as="geometry">
            <Array as="points">
              <mxPoint x="1326" y="673" />
              <mxPoint x="1326" y="395" />
            </Array>
          </mxGeometry>
        </mxCell>
        <mxCell id="23046e2b9bb16c14-68" value="Gateway" style="shadow=0;dashed=0;html=1;strokeColor=none;shape=mxgraph.mscae.enterprise.gateway;fillColor=#FFFFFF;rounded=0;fontSize=12;fontColor=#FFFFFF;align=center;labelPosition=center;verticalLabelPosition=top;verticalAlign=bottom;" parent="1" vertex="1">
          <mxGeometry x="1336" y="648" width="50" height="50" as="geometry" />
        </mxCell>
        <mxCell id="23046e2b9bb16c14-81" value="A" style="text;html=1;strokeColor=none;fillColor=none;align=center;verticalAlign=middle;whiteSpace=wrap;rounded=1;shadow=0;fontSize=11;fontColor=#FFFFFF;fontStyle=1" parent="1" vertex="1">
          <mxGeometry x="666" y="678" width="20" height="20" as="geometry" />
        </mxCell>
        <mxCell id="23046e2b9bb16c14-82" value="B" style="text;html=1;strokeColor=none;fillColor=none;align=center;verticalAlign=middle;whiteSpace=wrap;rounded=1;shadow=0;fontSize=11;fontColor=#FFFFFF;fontStyle=1" parent="1" vertex="1">
          <mxGeometry x="1226" y="678" width="20" height="20" as="geometry" />
        </mxCell>
        <mxCell id="23046e2b9bb16c14-83" value="C" style="text;html=1;strokeColor=none;fillColor=none;align=center;verticalAlign=middle;whiteSpace=wrap;rounded=1;shadow=0;fontSize=11;fontColor=#FFFFFF;fontStyle=1" parent="1" vertex="1">
          <mxGeometry x="1406" y="680" width="20" height="20" as="geometry" />
        </mxCell>
        <mxCell id="23046e2b9bb16c14-84" value="" style="rounded=0;whiteSpace=wrap;html=1;shadow=0;strokeWidth=2;fillColor=#F04D22;fontSize=12;fontColor=#FFFFFF;align=center;strokeColor=none;arcSize=6;verticalAlign=top;" parent="1" vertex="1">
          <mxGeometry x="326" y="820" width="300" height="102" as="geometry" />
        </mxCell>
        <mxCell id="23046e2b9bb16c14-85" value="" style="rounded=0;whiteSpace=wrap;html=1;shadow=0;strokeWidth=2;fillColor=#8BC63E;fontSize=12;fontColor=#FFFFFF;align=center;strokeColor=none;arcSize=6;verticalAlign=top;" parent="1" vertex="1">
          <mxGeometry x="626" y="820" width="400" height="102" as="geometry" />
        </mxCell>
        <mxCell id="23046e2b9bb16c14-86" value="" style="rounded=0;whiteSpace=wrap;html=1;shadow=0;strokeWidth=2;fillColor=#0072BC;fontSize=12;fontColor=#FFFFFF;align=center;strokeColor=none;arcSize=3;verticalAlign=top;" parent="1" vertex="1">
          <mxGeometry x="1026" y="820" width="390" height="102" as="geometry" />
        </mxCell>
        <mxCell id="23046e2b9bb16c14-87" value="A" style="text;html=1;strokeColor=none;fillColor=none;align=center;verticalAlign=middle;whiteSpace=wrap;rounded=1;shadow=0;fontSize=30;fontColor=#FFFFFF;fontStyle=1" parent="1" vertex="1">
          <mxGeometry x="326" y="853" width="40" height="35" as="geometry" />
        </mxCell>
        <mxCell id="23046e2b9bb16c14-88" value="B" style="text;html=1;strokeColor=none;fillColor=none;align=center;verticalAlign=middle;whiteSpace=wrap;rounded=1;shadow=0;fontSize=30;fontColor=#FFFFFF;fontStyle=1" parent="1" vertex="1">
          <mxGeometry x="626" y="853" width="40" height="35" as="geometry" />
        </mxCell>
        <mxCell id="23046e2b9bb16c14-89" value="C" style="text;html=1;strokeColor=none;fillColor=none;align=center;verticalAlign=middle;whiteSpace=wrap;rounded=1;shadow=0;fontSize=30;fontColor=#FFFFFF;fontStyle=1" parent="1" vertex="1">
          <mxGeometry x="1026" y="853" width="40" height="35" as="geometry" />
        </mxCell>
        <mxCell id="23046e2b9bb16c14-90" value="Computer" style="verticalLabelPosition=top;html=1;verticalAlign=bottom;strokeColor=none;fillColor=#FFFFFF;shape=mxgraph.azure.computer;rounded=0;shadow=0;fontSize=10;fontColor=#FFFFFF;align=center;labelPosition=center;" parent="1" vertex="1">
          <mxGeometry x="393" y="860" width="50" height="45" as="geometry" />
        </mxCell>
        <mxCell id="23046e2b9bb16c14-91" value="VHD" style="shadow=0;html=1;strokeColor=none;fillColor=#FFFFFF;labelPosition=center;verticalLabelPosition=top;verticalAlign=bottom;shape=mxgraph.azure.vhd;rounded=0;fontSize=10;fontColor=#FFFFFF;align=center;" parent="1" vertex="1">
          <mxGeometry x="483" y="857" width="40" height="50" as="geometry" />
        </mxCell>
        <mxCell id="23046e2b9bb16c14-92" value="+" style="text;html=1;strokeColor=none;fillColor=none;align=center;verticalAlign=middle;whiteSpace=wrap;rounded=1;shadow=0;fontSize=30;fontColor=#FFFFFF;fontStyle=1" parent="1" vertex="1">
          <mxGeometry x="443" y="865" width="40" height="35" as="geometry" />
        </mxCell>
        <mxCell id="23046e2b9bb16c14-93" value="+" style="text;html=1;strokeColor=none;fillColor=none;align=center;verticalAlign=middle;whiteSpace=wrap;rounded=1;shadow=0;fontSize=30;fontColor=#FFFFFF;fontStyle=1" parent="1" vertex="1">
          <mxGeometry x="523" y="865" width="40" height="35" as="geometry" />
        </mxCell>
        <mxCell id="23046e2b9bb16c14-94" value="Server&lt;div&gt;Directory&lt;/div&gt;" style="shadow=0;html=1;strokeColor=none;shape=mxgraph.mscae.enterprise.server_directory;fillColor=#FFFFFF;rounded=0;fontSize=10;fontColor=#FFFFFF;align=center;verticalAlign=bottom;labelPosition=center;verticalLabelPosition=top;" parent="1" vertex="1">
          <mxGeometry x="563" y="858" width="36" height="50" as="geometry" />
        </mxCell>
        <mxCell id="23046e2b9bb16c14-95" value="VM Feature" style="shadow=0;html=1;strokeColor=none;fillColor=#FFFFFF;labelPosition=center;verticalLabelPosition=top;verticalAlign=bottom;shape=mxgraph.azure.virtual_machine_feature;rounded=0;fontSize=10;fontColor=#FFFFFF;align=center;" parent="1" vertex="1">
          <mxGeometry x="684" y="861" width="50" height="45" as="geometry" />
        </mxCell>
        <mxCell id="23046e2b9bb16c14-96" value="+" style="text;html=1;strokeColor=none;fillColor=none;align=center;verticalAlign=middle;whiteSpace=wrap;rounded=1;shadow=0;fontSize=30;fontColor=#FFFFFF;fontStyle=1" parent="1" vertex="1">
          <mxGeometry x="734" y="866" width="40" height="35" as="geometry" />
        </mxCell>
        <mxCell id="23046e2b9bb16c14-97" value="VHD" style="shadow=0;html=1;strokeColor=none;fillColor=#FFFFFF;labelPosition=center;verticalLabelPosition=top;verticalAlign=bottom;shape=mxgraph.azure.vhd;rounded=0;fontSize=10;fontColor=#FFFFFF;align=center;" parent="1" vertex="1">
          <mxGeometry x="774" y="858" width="40" height="50" as="geometry" />
        </mxCell>
        <mxCell id="23046e2b9bb16c14-98" value="3rd Party&lt;div&gt;Integration&lt;/div&gt;" style="shadow=0;html=1;strokeColor=none;fillColor=#FFFFFF;labelPosition=center;verticalLabelPosition=top;verticalAlign=bottom;shape=mxgraph.office.communications.3rd_party_integration;rounded=0;fontSize=10;fontColor=#FFFFFF;align=center;" parent="1" vertex="1">
          <mxGeometry x="854" y="856" width="54" height="55" as="geometry" />
        </mxCell>
        <mxCell id="23046e2b9bb16c14-99" value="+" style="text;html=1;strokeColor=none;fillColor=none;align=center;verticalAlign=middle;whiteSpace=wrap;rounded=1;shadow=0;fontSize=30;fontColor=#FFFFFF;fontStyle=1" parent="1" vertex="1">
          <mxGeometry x="814" y="866" width="40" height="35" as="geometry" />
        </mxCell>
        <mxCell id="23046e2b9bb16c14-100" value="+" style="text;html=1;strokeColor=none;fillColor=none;align=center;verticalAlign=middle;whiteSpace=wrap;rounded=1;shadow=0;fontSize=30;fontColor=#FFFFFF;fontStyle=1" parent="1" vertex="1">
          <mxGeometry x="908" y="866" width="40" height="35" as="geometry" />
        </mxCell>
        <mxCell id="23046e2b9bb16c14-101" value="Data Migration&lt;div&gt;Wizard&lt;/div&gt;" style="shadow=0;html=1;strokeColor=none;shape=mxgraph.mscae.intune.data_migration_wizard;fillColor=#FFFFFF;rounded=0;fontSize=10;fontColor=#FFFFFF;align=center;verticalAlign=bottom;labelPosition=center;verticalLabelPosition=top;" parent="1" vertex="1">
          <mxGeometry x="948" y="859" width="50" height="48" as="geometry" />
        </mxCell>
        <mxCell id="23046e2b9bb16c14-102" value="VM Feature" style="shadow=0;html=1;strokeColor=none;fillColor=#FFFFFF;labelPosition=center;verticalLabelPosition=top;verticalAlign=bottom;shape=mxgraph.azure.virtual_machine_feature;rounded=0;fontSize=10;fontColor=#FFFFFF;align=center;" parent="1" vertex="1">
          <mxGeometry x="1086" y="861" width="50" height="45" as="geometry" />
        </mxCell>
        <mxCell id="23046e2b9bb16c14-103" value="" style="line;strokeWidth=2;direction=south;html=1;rounded=0;shadow=0;fillColor=none;fontSize=30;fontColor=#FFFFFF;align=center;strokeColor=#FFFFFF;" parent="1" vertex="1">
          <mxGeometry x="366" y="820" width="10" height="102" as="geometry" />
        </mxCell>
        <mxCell id="23046e2b9bb16c14-104" value="" style="line;strokeWidth=2;direction=south;html=1;rounded=0;shadow=0;fillColor=none;fontSize=30;fontColor=#FFFFFF;align=center;strokeColor=#FFFFFF;" parent="1" vertex="1">
          <mxGeometry x="666" y="820" width="10" height="102" as="geometry" />
        </mxCell>
        <mxCell id="23046e2b9bb16c14-105" value="" style="line;strokeWidth=2;direction=south;html=1;rounded=0;shadow=0;fillColor=none;fontSize=30;fontColor=#FFFFFF;align=center;strokeColor=#FFFFFF;" parent="1" vertex="1">
          <mxGeometry x="1066" y="820" width="10" height="102" as="geometry" />
        </mxCell>
        <mxCell id="23046e2b9bb16c14-106" value="+" style="text;html=1;strokeColor=none;fillColor=none;align=center;verticalAlign=middle;whiteSpace=wrap;rounded=1;shadow=0;fontSize=30;fontColor=#FFFFFF;fontStyle=1" parent="1" vertex="1">
          <mxGeometry x="1136" y="866" width="40" height="35" as="geometry" />
        </mxCell>
        <mxCell id="23046e2b9bb16c14-107" value="Azure&lt;div&gt;Website&lt;/div&gt;" style="verticalLabelPosition=top;html=1;verticalAlign=bottom;strokeColor=none;fillColor=#FFFFFF;shape=mxgraph.azure.azure_website;rounded=0;shadow=0;fontSize=10;fontColor=#FFFFFF;align=center;labelPosition=center;" parent="1" vertex="1">
          <mxGeometry x="1176" y="858" width="50" height="50" as="geometry" />
        </mxCell>
        <mxCell id="23046e2b9bb16c14-108" value="+" style="text;html=1;strokeColor=none;fillColor=none;align=center;verticalAlign=middle;whiteSpace=wrap;rounded=1;shadow=0;fontSize=30;fontColor=#FFFFFF;fontStyle=1" parent="1" vertex="1">
          <mxGeometry x="1226" y="866" width="40" height="35" as="geometry" />
        </mxCell>
        <mxCell id="23046e2b9bb16c14-109" value="MySQL&lt;div&gt;Database&lt;/div&gt;" style="verticalLabelPosition=top;html=1;verticalAlign=bottom;strokeColor=none;fillColor=#FFFFFF;shape=mxgraph.azure.mysql_database;rounded=0;shadow=0;fontSize=10;fontColor=#FFFFFF;align=center;labelPosition=center;" parent="1" vertex="1">
          <mxGeometry x="1266" y="859" width="37.5" height="50" as="geometry" />
        </mxCell>
        <mxCell id="23046e2b9bb16c14-110" value="+" style="text;html=1;strokeColor=none;fillColor=none;align=center;verticalAlign=middle;whiteSpace=wrap;rounded=1;shadow=0;fontSize=30;fontColor=#FFFFFF;fontStyle=1" parent="1" vertex="1">
          <mxGeometry x="1304" y="866" width="40" height="35" as="geometry" />
        </mxCell>
        <mxCell id="23046e2b9bb16c14-111" value="Azure&lt;div&gt;Storage&lt;/div&gt;" style="shadow=0;html=1;strokeColor=none;labelPosition=center;verticalLabelPosition=top;verticalAlign=bottom;shape=mxgraph.mscae.cloud.azure_storage;fillColor=#FFFFFF;rounded=0;fontSize=10;fontColor=#FFFFFF;align=center;" parent="1" vertex="1">
          <mxGeometry x="1344" y="862" width="50" height="43" as="geometry" />
        </mxCell>
        <mxCell id="23046e2b9bb16c14-113" value="Title" style="text;strokeColor=none;fillColor=none;html=1;fontSize=24;fontStyle=1;verticalAlign=middle;align=center;rounded=0;shadow=0;fontColor=#FFFFFF;" parent="1" vertex="1">
          <mxGeometry x="120" y="40" width="1510" height="40" as="geometry" />
        </mxCell>
        <mxCell id="23046e2b9bb16c14-114" value="Subtitle" style="text;html=1;strokeColor=none;fillColor=none;align=center;verticalAlign=middle;whiteSpace=wrap;rounded=0;shadow=0;fontSize=10;fontColor=#009BFF;" parent="1" vertex="1">
          <mxGeometry x="114" y="90" width="1526" height="20" as="geometry" />
        </mxCell>
        <mxCell id="23046e2b9bb16c14-115" value="&lt;h1&gt;Heading&lt;/h1&gt;&lt;p&gt;Lorem ipsum dolor sit amet, consectetur adipisicing elit, sed do eiusmod tempor incididunt ut labore et dolore magna aliqua.&lt;/p&gt;" style="text;html=1;strokeColor=none;fillColor=none;spacing=5;spacingTop=-20;whiteSpace=wrap;overflow=hidden;rounded=0;shadow=0;fontSize=10;fontColor=#FFFFFF;align=left;" parent="1" vertex="1">
          <mxGeometry x="323" y="952" width="1041" height="70" as="geometry" />
        </mxCell>
        <mxCell id="23046e2b9bb16c14-118" style="edgeStyle=orthogonalEdgeStyle;rounded=0;elbow=vertical;html=1;startArrow=none;startFill=0;startSize=10;endArrow=none;endFill=0;endSize=10;strokeColor=#FFFFFF;strokeWidth=3;fontSize=20;fontColor=#FFFFFF;entryX=-0.009;entryY=0.502;entryPerimeter=0;" parent="1" source="23046e2b9bb16c14-68" target="23046e2b9bb16c14-66" edge="1">
          <mxGeometry relative="1" as="geometry">
            <mxPoint x="1346.3333333333333" y="566.6666666666666" as="targetPoint" />
            <mxPoint x="1371" y="658" as="sourcePoint" />
            <Array as="points">
              <mxPoint x="1326" y="673" />
              <mxPoint x="1326" y="475" />
            </Array>
          </mxGeometry>
        </mxCell>
        <mxCell id="hTrMvqoXApRWQLeHkyPs-1" value="" style="shape=image;verticalLabelPosition=bottom;labelBackgroundColor=default;verticalAlign=top;aspect=fixed;imageAspect=0;image=data:image/png,iVBORw0KGgoAAAANSUhEUgAAAgAAAAIACAYAAAD0eNT6AAAABHNCSVQICAgIfAhkiAAAAAlwSFlzAAAOxAAADsQBlSsOGwAAABl0RVh0U29mdHdhcmUAd3d3Lmlua3NjYXBlLm9yZ5vuPBoAACAASURBVHic7d17dFR1nu/9z29XJSEJJARCgAQQiVxU5JIokAJR+972PCfQWnFs20bPmqef85zB+2g79jhW99Jj08rhdKPOmjnnWRPtGR9MtJEzzjM9M32x1VB44eIFFYW0zUUIIgS5JARSv+cPwAmRSyC196+q9vu1lqtXBbJ/n2+j1Ce79v5tI2SUeLwpUmQKZhubqrcyMcmOk1R27Jf3SKZVxraYlFlxwHStbG5u6HaZt7+YN9fnjUe2bayYLc+rT1kbM9IJ81qpVda2RIy3orJ6x8rm5mbmzSJhmzfXGNcBcFQ83lRYrOhtVuZOScP6+G07ZbX4oDm8tLm5ocPPfOnGvH2StfPW1d1RqK7Dt8nqrOa10mJTkLc0mVzCvBksbPPmKgpABljQsLxB1v53yVSd4yG2WJk7n2qe92xag/mEec9aVs07q+bPG4zMf5d0TvMaaYusuXPl2qXMm4HCNm8ui7gOEG7W3NQwLSGrpZIp6ceBSo0Un37RdYXzGi787YsvvmjTFjGtmPccZcm8MrGahQnJLJXUr3llFB9VObNw6/arfysxb4YI27w5jwLgSCKR8M4rb18m6c+VnjMxRsbM2fvJiEnzGi78Zaa9STBvv2X0vFLCq6u5JK3zGmnOmJEHJ23ZfvUvM+9Ngnn7KcPnDQfPdYCwal0/7SEZNaT7uFa67g/rp/043cftL+ZNj0ydt276rock68u8sZpdzOtY2OYNC64BcODoZ8J6xsclrIziTzbNf87HNfqMedMuo+Y99pmwr/Maq/jKtY8xrwNhmzdMKAABi8ebCouUt0HSaH9XstsKOvMm/N0//R8H/V3n9JjXL5kxb13dHYXm0OEN1vd5ta3LdE1YvfrvmDdAYZs3bPgIIGBFNu92+f8fkyRTdajgyEL/1zk95vVLZsyrrq7bA3hzkKSqPJvPvEEL27whwxmAAMXjTZEi5W1X3++b7a+2gzpc5WozGeb1neN545Gtm4YHN69V26gL2qpcbSbDvD5zPG8YcQYgQAMUnaPg3hwkaXihonUBrncC5vWd03m3bhwR7LxGwze3DmPegIRt3jCiAATIs6oPek3jYM3jmNd/LueVsYGv7VmPeYMStnlDiAIQIGNMLOg1rYM1j2Ne/7mcV5KDtS3zBids84YOBSBA9uiDMgJlpOqg1zyOef3ncl45mFfWMG9wwjZv6FAAglXqYM3BDtY8jnn9F655DfMGKGzzhg4FIFj5DtYscLDmcczrP+YNDvP6z+W8oUMBAAAghCgAAACEEAUAAIAQogAAABBCFAAAAEKIAgAAQAhRAAAACCEKAAAAIUQBAAAghCgAAACEEAUAAIAQogAAABBCFAAAAEKIAgAAQAhRAAAACCEKAAAAIUQBAAAghCgAAACEEAUAAIAQogAAABBCFAAAAEKIAgAAQAhRAAAACCEKAAAAIUQBAAAghCgAAACEEAUAAIAQogAAABBCFAAAAEKIAgAAQAhRAAAACCEKAAAAIUQBAAAghCgAAACEEAUAAIAQMq4DBK2pyUYikzTbpFQvKSZpnKQySXlukwHBW/NCm+sIQOCMkSJ5XipvgHcwvzDyfuFAr3FXpOR/JhpMl+tsQQpNAWhaaQujRbpN0p2ShrnOA2QCCgBwVDTfS5UMy/+Vis2NdzaU7nadJwih+Ahg+TrbEC3Sh5IeFm/+AIBejnSlvN3bOq/ev7lr5/94qv1R13mCkNNnAKy15pfr9IAx+mvl+KzAueAMAPBFRlLpiAGr9leXXp64yhxxnccvOXsGIGGtt/xNLTNGD4g3fwBAH1lJ7Ts6ZxVu2LMp8TsbdZ3HLzlbAKa8qYckNbjOAQDITvt2dY0p3tT+ouscfsnJArB8nW2QdK/rHACA7PbZjkOzl/zis0dc5/BDzhWAppW20EqhuIADAOAvK2lfW+cdf/v0Z+Wus6RbzhWAvGLdLmm06xwAgNzQ1ZmKHDiUetJ1jnTLqQLQ1GQj1uoO1zkAALnls0+6vpFosvmuc6RTThWA6AWaI+7zBwCk2ZGulDe4a/+fuc6RTjlVAOSp3nUEAEBuOtJx5CbXGdIppwqAPbq3PwAAaXeoo3uS6wzplFMFwBx9sA8AAGl3uDNV7DpDOuVUAZBU6joAACA3pY7YnHrPzKlhJOXUFZoAgMyRSlnXEdIq1woAAADoAwoAAAAhRAEAACCEKAAAAIQQBQAAgBCiAAAAEEIUAAAAQogCAABACFEAAAAIIQoAAAAhRAEAACCEKAAAAIQQBQAAgBCiAAAAEEIUAAAAQogCAABACFEAAAAIIQoAAAAhRAEAACCEKAAAAIQQBQAAgBCiAAAAEEIUAAAAQogCAABACEX78pvi8aZIkSmYbWyq3srEJDtOUpmkPH/jAQCQOepqFlrXGXo5LGmPlVplbUvEeCsqq3esbG5u7j7TN562AMTjTYXFit5mZe6UTQ07OnWmzQ4AQGjlSaowUoWMmZWSvWvrpuE7Z9UsXGwK8pYmk0s6TvWNp/wIYEHD8oYiRT+0Mg9LGuZHagAAkHYVRlpkDh3eEJt+y7Wn+k0nKQDW3NSwPCGrZZKp8jMhAADwh5VGW2ObZtXe8hMp8YX3+xO+kEgkvAXXPr/MWj0gyQSWEgAA+MEYa38Qq9n1dO8ScMKL1vXTHpJRQ7DZAACAn6x0Xaxm1497fu3zArCgYXmDkb03+FgAAMBvVrovNn3hNcdfe9LRq/1l9ai7WAAAwGfGGv2stvb7RdKxAlBk826XNNppLAAA4LeqPJu/UJK8eLwpIqM7XCcCAAD+M1Z3xuPxiDdA0TniPn8AAMLBaPjm1mF1nmdV7zoLAAAIjme9es8YE3MdBAAABMnGPCuNcx0DAAAEyJpqT1Kp6xwAACBARoNP+TAgAACQuzxJe12HAAAAAbJq9ySzyXUOAAAQqI2ejG1xnQIAAATHGLV4JmVWuA4CAACCY1PeiugB07WySHk7JVW4DoT0s9Zq95bd2vHBdn26dbcOth9QV8dh2VTKdTRkgA82/cZ1BGQAY4y8SL7y84tUUjpSw0ddpGFV4yUv4joa/GDVllw3ZFW0ubmhe8G1yxfLaJHrTEif7iPdan1tkza+ukldBw+5jgMgg1lr1X3kkDqOHFLHwT1q2/6uImsLVDlqiqovuUqRvHzXEZFGxjOPSIlUVJLMwPaf2wOD/1zSGMe5kAbb3tumd/79bXXu63QdBUCW6j5ySFs+el07tr6j8yddodETLnUdCelgtNXmR5+Qjj0OuLHx5k4rc5ck6zQY+sVaacPL72v18td58weQFoePdOiDd/5V6199Xtby0WGWs7L21mRySYd0rABI0lPN85411j7sLhf6xVqtXv663n/pfVlqHIC0stqx7R2tffEXlIBsZvVgcs3jy4+/PGEnwLGT37rfSM8Enwr99e6L72nbe9tcxwCQw/bs2aL3X3/BdQycAystS64tT/T82gkFIJFIpBqb511vjH4kPg7IGtve26YPV37gOgaAEPh469va9uHrrmOg76w1ZtGqNeU3SIkTTt+c5FkAxjY2zU/IKC5pS0ABcY66j3Rr/a/fcR0DQGhYbXz/9zpymLuLssBmyV6zavXSe3u/+UsnLQBHPdk0/zlT3D7ByN4jqc3XiDhnm17dpI7POlzHABAiRw53qvXtF13HwKlYtcno7oKS/RN7fubfW/R0x2hsvLlT0iOJRGJx6/opMWNVb42JGalaUpkkbg51yFqrTa/xKAcAwdu+5U1NmPYVNgtyr0tWe2TsJkkt1jMrVr1RnjzZT/y9mQDCBeaX68J1/fuuzbvU8otXXMdAFmMnQPTHJTOvVUXVJNcxAvXgX43ImffNU34EgMy3Y8N21xEAhNjOze+6joB+oABksT3bdruOACDE9n22w3UE9AMFIIvt33PQdQQAIdbVud91BPQDBSCLHTl02HUEACHWnTriOgL6gQKQxVLdbMkJwB22Bc5uFAAAAEKIAgAAQAhRAAAACCEKAAAAIUQBAAAghCgAAACEEAUAAIAQogAAABBCFAAAAEKIAgAAQAhRAAAACCEKAAAAIUQBAAAghCgAAACEEAUAAIAQogAAABBCFAAAAEKIAgAAQAhRAAAACCEKAAAAIUQBAAAghCgAAACEEAUAAIAQogAAABBC0b78pni8KVJkCmYbm6q3MjHJjpNUJinP33gAAGSOupqF1nWGXg5L2mOlVlnbEjHeisrqHSubm5u7z/SNpy0A8XhTYbGit1mZO2VTw45OnWmzAwAQWnmSKoxUIWNmpWTv2rpp+M5ZNQsXm4K8pcnkko5TfeMpPwJY0LC8oUjRD63Mw5KG+ZEaAACkXYWRFplDhzfEpt9y7al+00kKgDU3NSxPyGqZZKr8TAgAAPxhpdHW2KZZtbf8REp84f3+hC8kEglvwbXPL7NWD0gygaUEAAB+MMbaH8Rqdj3duwSc8KJ1/bSHZNQQbDYAAOAnK10Xq9n1455f+7wALGhY3mBk7w0+FgAA8JuV7otNX3jN8deedPRqf1k96i4WAADwmbFGP6ut/X6RdKwAFNm82yWNdhoLAAD4rSrP5i+UJC8eb4rI6A7XiQAAgP+M1Z3xeDziDVB0jrjPHwCAcDAavrl1WJ3nWdW7zgIAAILjWa/eM8bEXAcBAABBsjHPSuNcxwAAAAGyptqTVOo6BwAACJDR4FM+DAgAAOQuT9Je1yEAAECArNo9yWxynQMAAARqoydjW1ynAAAAwTFGLZ5JmRWugwAAgODYlLfCO2C6Vkra6ToMAAAIgFVbct2QVV5zc0O3rBa7zgMAAPxnPPOIlEh5kmQGtv9c0mbHmQAAgJ+Mttr86BPSsccBNzbe3Gll7pJknQYDAAB+sbL21mRySYd0rABI0lPN85411j7sLhcAAPCN1YPJNY8vP/7yhJ0Ax05+634jPRN8KgAA4BcrLUuuLU/0/NoJBSCRSKQam+ddb4x+JD4OAAAg21lrzKJVa8pvkBKpnr9wkmcBGNvYND8ho7ikLQEFBAAA6bVZstesWr303t5v/tJJC8BRTzbNf84Ut08wsvdIavM1IgAASA+rNhndXVCyf2LPz/x7i57uGI2NN3dKeiSRSCxuXT8lZqzqrTExI1VLKpOUn+bYAACg77pktUfGbpLUYj2zYtUb5cmT/cTf22kLwHGJRCIl6ZVj/2Ss+h9arltA1ikdXKCLLilX9fgynXd+qUpKC1RcnCfjSQf2H9H+fYe05Y/71LqxXe+984l2th10HTknDR48SLWXXqjptRM1avQIDR48UIWFBeroOKT29v3aumWH1q7eoDdef1d79+53HReOJNc8ZlxnSJc+FQAA6XfJtApd8eUxmjx1mDzv5H+nDC6LaHBZgUaNKVHd5VWyVtq4Ybde/t0WvZb8WKkUnbe/xlWP0vU3fF2TL7ngpH8OhYUFKiws0MiRQ3XZjIv1Z//XfL391oda9vS/qnXTNgeJgfSgAAABGzO2RPEbLtTEC4ee9fcaI42fNETjJw3R1fXVavrH9/TOm5/4kDL3lQwq1s3/Z73qYpfImL7/UOd5RlOnTdCUqePV8sqb+vv/tUL793f4mBTwBwUACIgx0pe+NlbXfmeSIpFTXn/bZyMqB+rWuy/TS7/drGVPvasjR874kR+Oqaws191/eZMqK8vP+RjGGM25fJrGjx+jny56Uls3c600skv//xYCcEZ5eRH9l1trdN2NF6Xlzb+nuV8ao7t+OFODBnFNbl9MmHie/ttPb+nXm39Pw0cM0YP/7b9qwsTz0nI8ICgUAMBnnmf0n//vqZp+2Qjf1qgeX6bb752h4uI839bIBeXlg/UXP7hRhYUFaT1uYWGB/uIHN6p86OC0HhfwEwUA8Nn3/uwS1c7w783/uNHnlei/3lGrSCRnLlJOq2g0orvv/Z5KSwf6cvzS0oH6i3tvVCQS8eX4QLpRAAAfzZxdpdjcUYGtd/TiwAsCWy+bfPXrszT2/Epf1zh/XJW+8rUZvq4BpAsFAPBJ6eACXf+9iwJf9+r6CzR2XGng62ayAQPyNf+aqwJZ69qGr6T9IwbADxQAwCdX11+gIgefyUciRvXxiYGvm8mu+tKlvp36762kpFhzr6wJZC2gPygAgA9KBxdo9hXBnfrv7eJLyjV+0hBn62eay2ZODna9GRcHuh5wLigAgA+u/Mp5ys93ezHYl77KbWmSNHBgoSZdODbQNS+6+HwVDywMdE3gbFEAgDQzxqjucnc//R83tXY4ewNIumD8mLTvvXAmkUhE1ePc/zsAnA4FAEiziyYP1ZChA1zHUDTqqXbmSNcxnKsYXuZk3eEjz36rZyBIFAAgzWJXjHYd4XNB3oKYqYqL3ZyKd7Uu0FcUACCNiorzNLWmwnWMz40dV6pRYwa5juFUJOrmWoxoHhsCIbNRAIA0mlFX6fziv97q5nAWAMAXUQCANHJ569+pzJpTFfhFcAAyH38rAGlSNWqQzjs/83bgG1SSr8lT0/PkOwC5gwIApMmcKzPn4r/eYnMzNxsANygAQBpEo55mxDL3lrsp0ys0qIQ9AQD8BwoAkAZH32Az9wEwkYjRjJi/T8IDkF0oAEAaZOLFf71l8kcUAIJHAQD6qaS0QBddMsx1jDOqGjVIY8aWuI4BIENQAIB+il1epUjEuI7RJ+wMCOA4CgDQT3VZ9KY6o65S0Tz+swdAAQD6pXpCmUZWDnQdo88GDsrXlGmZs1UxAHcoAEA/xDLgsb9ni48BAEgUAOCcFRREdOmszL33/1QunjJMpYMz95ZFAMGgAADnqHbGSBUWRl3HOGuRiNHM2VWuYwBwrE9/e8XjTZEiUzDb2FS9lYlJdpykMkl5/sYDMlfd3Ox9E738ytH6t39udR0DyDp1NQut6wy9HJa0x0qtsrYlYrwVldU7VjY3N3ef6RtPWwDi8abCYkVvszJ3yqaGHZ0602YHglc+rFATJg11HeOcDR9ZrPOrB+uDTa6TAOinPEkVRqqQMbNSsndt3TR856yahYtNQd7SZHJJx6m+8ZQfASxoWN5QpOiHVuZhSZm/ywkQoNlXjJbJjlv/T6nu8uw9gwHgtCqMtMgcOrwhNv2Wa0/1m05SAKy5qWF5QlbLJMPfEEAvxhjVZeHV/73NjFVq0KAi1zEA+MRKo62xTbNqb/mJlPjC+/0JX0gkEt6Ca59fZq0ekJTlP98A/rhw8lANGTrAdYx+KyzK0/Xf/arrGAD8ZYy1P4jV7Hq6dwk44UXr+mkPyagh2GxAdpmdQ/fRz54z1XUEAAGw0nWxml0/7vm1zwvAgoblDUb23uBjAdmjsChPU2uHu46RNgMGFGnixDGuYwAIgJXui01feM3x15509Gp/WT3qLhaQHWbGKpWfH3EdI62+872vuY4AIBjGGv2stvb7RdKxAlBk826XxMPCgTOYfUXunP4/buKkcfI89gQDQqIqz+YvlCQvHm+KyOgO14mATFc1apDOO7/UdYy0M/L09atnuI4BICDG6s54PB7xBig6R9znD5zRnCtz9yTZt/5kjusIAIJiNHxz67A6z7Oqd50FyHTRqKcZsex78E9fDasoV1nZINcxAATEs169Z4yJuQ4CZLpLpldoUEkOP0HPStd/l4sBgfCwMc9K41zHADJdLt37fyp1dZe4jgAgKNZUe5Jy76omII0GleTr4im5f5lMfsEATZ5S7ToGgCAYDebeH+AMZs8dpUgkHDtjX/+dr7iOACAgnqS9rkMAmawuBKf/j7tg/HmKRvm5AMh5Vu2eZHgiOHAK1RPKNLJyoOsYAfL0rT/humAgBDZ6MrbFdQogU8Vy4LG/Z+sb36IAALnOGLV4JmVWuA4CZKKCgogunZW79/6fypAhZRo6hD0BgFxmU94K74DpWilpp+swQKapnTFShYVR1zEcMPruTd90HQKAX6zakuuGrPKamxu6ZbXYdR4g09TNrXIdwZnLZlzsOgIAnxjPPCIlUp4kmYHtP5e02XEmIGOUVxRpwqShztY/eOCw9n3W5Wz9vLwC1dSOd7Y+AJ8YbbX50SekY48Dbmy8udPK3CXJOg0GZIjZc0fJOLz1/7Xkx1r1yjZ3ASTFr2NPACDHWFl7azK5pEM6VgAk6anmec8aax92lwvIDMYY1Tm++n/lS9vU8tIWpxnGVY9RNBrGayCAHGX1YHLN48uPvzxhx4+xk9+630jPBJ8KyBwXTh6qIUMHOFv/46379VFr+7H/dblPl9G8+TwmGMgFVlqWXFue6Pm1EwpAIpFINTbPu94Y/Uh8HICQcv3gn5bf/8dP/itf2uowifTVb8xyuj6AfrPWmEWr1pTfICVSPX/hJHt+GtvYND8ho7gkt+cggYAVFuVpau1wZ+t3d1u9uvLjz1+/vmq7Dh/udpanrGywKoaXOVsfQL9sluw1q1Yvvbf3m7900gJw1JNN858zxe0TjOw9ktp8jQhkiJmxSuXnR5yt/9banfps76HPXx/Y36U317jbpsNa6bsLvuFsfQDnwKpNRncXlOyf2PMz/95Oe4VPY+PNnZIeSSQSi1vXT4kZq3prTMxI1ZLKJOWnOTbg1OwrMuf0/3ErX9qqS2e625GwpvZCZ2sDOKMuWe2RsZsktVjPrFj1RnnyZD/x99anS3wTiURK0ivH/slY9T+0XLeAc1Y1apDOO7/U2fr7PuvS+rd2feHr69/apT27O1U2xM2FiXnRfF0280K9/up7TtYHMklyzWM582xwnvsJHDPnytFO10++vFXd3V8s7dZavdridk+Ahuu+5HR9AOlHAQAkRaOeZsTcPvin5TRX/Lf8fqtcnt86b+wo5eexJwCQSygAgKRLpldoUEmBs/VbN+7R9m37T/nrbTsOqHXjngATnchao283XOVsfQDpRwEA5P7e/5UvnfkUf/Jltx8DfOWrlzldH0B6UQAQeoNK8nXxlGHO1u/q6tYbr24/4+97Pfmxug652xOgpKREo0ZVOFsfQHpRABB6s+eOUiTi7sLeNa/t0MEDh8/4+zo6jmjtGzsCSHRy1ko33PhVZ+sDSC8KAEKvLoO2/j0T11sDT50+yen6ANKHAoBQq55QppGVA52t/+muDn3wft8v7nv/3U+165MOHxOdXiSSpzlzpzhbH0D6UAAQajHHj/09entf3+/vs1bO9wSYf82VTtcHkB4UAIRWfn5EtTNGOFvfWmnVObyZt/x+i9M9AUaNHqmCAnYBB7IdBQChVTtzhIqK85yt//67n2rXzoNn/X27PunQhxt2+5Coj6xRw/Vfdrc+gLSgACC0Zs91u/Xv2Vz811vyZbcXA175pRqn6wPoPwoAQql8WKHGTxribP2Og4e1bvW5P2X7jVXb1dlxJI2Jzs7A4kEae77brZMB9A8FAKE0+4rRMg6f6fXqyv5t6nPoULfWvO5uTwBJ+s6NX3O6PoD+oQAgdIwxqnN89X9ftv49E9dbA18yZYLT9QH0DwUAoXPh5KEaMnSAs/U/3rpfH7W29/s4H7z/qT45h4sI08UzEV3xpenO1gfQPxQAhI7rB//05+K/nqx1fxZg3revdLo+gHNHAUCoFBblaWrtcGfrd3dbvbry47Qdr+X3W5RKudsUoKpyuAqL3J1NAXDuKAAIlVmzK5WfH3G2/tvrduqzvYfSdrw9uzv1wXvu9gSwVvrTG9gTAMhGFACEiuuL/9J1+r8n1w8IumIuewIA2YgCgNCoGjVIY8eVOlt/32ddeufNXWk/7prX+/Y4Yb8UFhVr3AVVztYHcG4oAAiN2Ve63fkv+fJWdXen0n7crq5urX5te9qPeza+e+PXna4P4OxRABAKkYinmTG3O9e1+HiqfqXjuwEuuvgCp+sDOHsUAITClJoKDSopcLZ+68Y92r5tv2/H3/TBHu342L/jn4kxnr729RnO1gdw9igACAXX9/6nY+e/M0m+4vYswJ/Uz3G6PoCzQwFAzhtUkq+Lp5Q7W7+rq1tvvOr/Z/TJl7c63RNgxIgKlZQOdLY+gLNDAUDOi80dpUjE3b/qQV2l377nkN57J/13GfSVtdL17AkAZA0KAHJezPnWv8Hdp+96T4DYnGlO1wfQdxQA5LTq8WUaWenutPSnuzoC3alv7Rtt2r+vK7D1ehtQUKhJk8Y4Wx9A30X78pvi8aZIkSmYbWyq3srEJDtOUpmkPH/jAf0Tm+t2g5q97Z36+rfOD3jNQxo4KD/QNXv6zve+rr++7386Wx/wU13NQncX2pzcYUl7rNQqa1sixltRWb1jZXNzc/eZvvG0BSAebyosVvQ2K3OnbGrY0akzbXbg5PLzI6qd4fbe/3EXlGncBWVOMwRtwsTz5XmeUqn0b3oE4AvyJFUYqULGzErJ3rV10/Cds2oWLjYFeUuTySUdp/rGU34EsKBheUORoh9amYclDfMjNeCn2pkjVFTMSaqgGXn65tWzXMcAwqzCSIvMocMbYtNvufZUv+kkBcCamxqWJ2S1TDJs8I2sNXuu261/w+zqP4m5jgCEnpVGW2ObZtXe8hMp8YX3+xO+kEgkvAXXPr/MWj0gyQSWEkiz8mGFGj8pXKfeM0l5RbnKyga5jgFAMsbaH8Rqdj3duwSc8KJ1/bSHZNQQbDYg/WZfMVrG0GGdsdJ3bvya6xQAjrHSdbGaXT/u+bXPC8CChuUNRvbe4GMB6WWMUd0cPr1ybWbdFNcRAPRgpfti0xdec/y1Jx292l9Wj7qLBaTPpIuHakh5oesYoVeQX6BLpla7jgHgPxhr9LPa2u8XSccKQJHNu10SV0whJ8y+wu3Of/gP113/FdcRAJyoKs/mL5QkLx5visjoDteJgHQoLMrTtNrhrmPgmPHjz1M0yoajQCYxVnfG4/GIN0DROeI+f+SIWbMrlZ8fcR0Dn/P0rf8023UIAD0ZDd/cOqzO86zqXWcB0qXuck7/Z5pvXs2eAECm8axX7xlj+K8TOaFq1CCNHVfqiJZtQgAAF6FJREFUOgZ6KSsbrKHl/LkAmcXGPCuNcx0DSIfZV3Ida2YyunHBN1yHANCTNdWeJKo5sl4kYjSjzu2Df3Bql8642HUEAD0ZDebyXOSEKdMrVFJa4DoGTiEvmq/aSye4jgGgB0/SXtchgP6afQWn/zPdtdd92XUEAMdZtXuS2eQ6B9Afg0rydfGUctcxcAbjxo1RNBp1HQPAURs9GdviOgXQH7G5oxSJ8GlW5jOa9+3LXYcAIMkYtXgmZVa4DgL0R2wu9/5ni699fZbrCAAk2ZS3wjtgulZK2uk6DHAuqseXaWTlQNcx0EeDy0pVMaLMdQwg3KzakuuGrPKamxu6ZbXYdR7gXMTm8tjfbGKtdOOCb7qOAYSa8cwjUiLlSZIZ2P5zSZsdZwLOSn5+RLUzuPc/29TUTHIdAQgvo602P/qEdOxxwI2NN3dambskWafBgLNQO3OEiorzXMfAWYpG83XZzAtdxwDCyMraW5PJJR3SsQIgSU81z3vWWPuwu1zA2Zk9l3v/s1X8T9kTAAic1YPJNY8vP/7yhHunxk5+634jPRN8KuDslA8r1PhJXEyWrcaeV6X8PPYEAIJipWXJteWJnl87oQAkEolUY/O8643Rj8THAchgs68YLWOM6xg4R9YaXXPdVa5jAGFgrTGLVq0pv0FKpHr+wkl2TzG2sWl+QkZxSVsCCgj0mTFGdXO4+j/bffkrM1xHAHLdZsles2r10nt7v/lLJy0ARz3ZNP85U9w+wcjeI6nN14jAWZh08VANKS90HQP9VFIySKNGVbiOAeQeqzYZ3V1Qsn9iz8/8ezvt/qmNjTd3NjZ/+5HzL36z0speLmsftdJKHS0EXenODPTF7CvY+S8XWCvdcONXXccAsl2XrNoku1Kyj1hPc5JryyuTqx979MUXGztP9419ugonkUikJL1y7J+MVf9Dy3ULOa6oOE/Taoc7W7+7O6Vf/8tHOXOBzKgxhRpW7u5BSlOnsycAsktyzWM5c/ERl+Eiq8yMVSo/P+Js/bfXfaLnlr3vbP102/iH3+n/bX5QZzgZ6JtIJE9z5k7RKy+95WR9IMx4hBqySt3lbk//r3xpq9P10y2VSmlTq9tNQL99DXcDAC5QAJA1qkYN0thxpc7W3/dZl95e94mz9f3yj0/9m9P1q0aPUEFBvtMMQBhRAJA1Zl/pdue/5Cvb1N39hTtpst76t1vVdfiQuwDWqOF6dgYEgkYBQFaIRIxm1Ll98E/y5dw6/d/Ta6vedrr+VV+qdbo+EEYUAGSFKdMrVFJa4Gz91o3t2rZln7P1/faLxl9JDq9tLi4eqLHn82RHIEgUAGSF2Vc4Pv2fwz/9S1J7+359+ulupxm+c+PXnK4PhA0FABlvUEm+Lp7i7l71rq5uvb5qu7P1g/IvL7Q4Xf+SKROcrg+EDQUAGa9uTpUiEXf/qq59fYcOHjjsbP2g/PM/JY9uz+eIZyK66ss1ztYHwoYCgIx3WV2l0/Vbcuze/1NJpVL64IM/OM3wzavrnK4PhAkFABltUEm+xox1d+//p7s6tOFdt5+NB+kfn/qV0/VHjeFCQCAoFABktPPOL5VxeHX6ype2yoboERPvv79Zhw6d9vkhvop4URUX86RHIAgUAGS00sHubv2z9ujmP2GTXPmm0/VHVg51uj4QFhQAZLTCQnfPq9rw7qfatfOgs/Vd+Ycn/9XpWZchQwe5WxwIEQoAMlqewyf/heXiv9727TuonTvdPfNg0KDitB6v+0h3Wo/XV0cOu1kX6CsKADLa3j1u9qjvOHhYa9/Y4WTtTPDC/3a3J8Af/pDePRcOHOhI6/EyfV2grygAyGiffOLmFPxrye3qOhTen+B+9f+tkrVu5v+oNb0FoG2Hm7s4dmzf5WRdoK8oAMhoO7btVyoV/FX4ub71b1+8+25r4Gt2dx9WKpXeJy5++OFmdXcHW2a6u7vV2hq+C0iRXSgAyGj79nXpww17Al2zbfsBtW5sD3TNTPQPDvYE+OCDP6b9mAcPdOq99cFucLT+nVYd2M9HAMhsFABkvDcC3of/xd+k/00oG7Vu3KYDB/YHuubyZ1/05bhvvP6uL8fNlPWAc0EBQMZ7Lfmx9u3rCmStgwcOa+XvOf1/XNMz/x7YWp2dB/Xmuo2+HPt3v31D7e3BPM557979eul3qwNZC+gPCgAyXsfBw3rhlx8Gsta//NMmdXQcCWStbPCrf35VnYeCOZX9+NJm347d2dml5c/+1rfj99T8zK/V0RlMYQX6gwKArPDSbzdryx8/83WNTR/u0W9+9ZGva2Sjhx980veNgbZt3a7XVr3n6xr//m+v6Q8+X5jXummrfvvr131dA0gXCgCyQne31eNLVuuzvf7sC7Dvsy797c/X6MiR9F6Bngvef/cj/frfk74d/9ChTv3lPX/j2/GP6+7u1qKHn9TuT/f6cvz29n1avOgfAr/jADhXFABkjd27OvTY4tU6lOb78w/s79ITS1ar3dGmQ9ng7/5mhda88Xbaj2tT3fqLO36mQ4eCOWW+Z/dnWrL4aXV0pPfP+uDBTj266Bfa9Sl3jyB7UACQVT5qbddD97do+8fpuTp9186DWvTjVdr0YbC3GmajRQ//o377m/SdCeg4eEC33bpYO9uC/f/+gw1/1H33LNXHH6dno562Hbt1/31P6MMPNqfleEBQKADIOjs+3q+fJJJa/eq53x5orVXL77fo4QdWakeaykQY/O0TK/T40mXq7j58zscwRnr//Y36zwseUtt2N7v0ffzxLt3/l4/rlZfXnfNGU6mU1csvrdVf/mCptm7ZmeaEgP8cPvMr/X65LkQPbpe04qHnXUdwbuKFQ/XN/1StCyeX9+lCte5uq/fe2aXnmz/Q5o/8+Sw4m3yw6Tfn9H3RqKf/8uffVmzONEW8vj2x0Rhp5ye79DeP/VLr3w5+l8FTOX9clf70O1/TlKkT5Hln/pcolUrpzXUfatnT/6qP/vBxAAkz25e//VeuIwTqwb8akTPvmzkziEQBCLOh5YWadulwTZg4RMNHDlRRcZ4Ki6I6crhbn+w8qE/aDmrDe7u19vUdge0pkA3OtQD0dNWXa3XVl2s0ZsxIFRYOkIwno6NnWbq7j2j37natfv09vfC/V+qTTzL3M/KS0oG67NKLNLVmokaPGa7BgweqqGiADh7sVHv7fm354w6tW7dBb7z+nj7by1mj4ygA2atPg8TjTZEiUzDb2FS9lYlJdpykMkl5/sY7O/U/nOc6QqAoAOivdBQAhFvYCsBvfvmg6wi9HZa0x0qtsrYlYrwVldU7VjY3N5/xaunTnruLx5sKixW9zcrcKZsadvTH61D9kA0AQCbLk1RhpAoZMysle9fWTcN3zqpZuNgU5C1NJpeccievU14EuKBheUORoh9amYclDfMjNQAASLsKIy0yhw5viE2/5dpT/aaTFABrbmpYnpDVMslU+ZkQAAD4w0qjrbFNs2pv+YmU+ML7/QlfSCQS3oJrn19mrR5Qjl0gCABACBlj7Q9iNbue7l0CTnjRun7aQzJqCDYbAADwk5Wui9Xs+nHPr31eABY0LG8wsvcGHwsAAPjNSvfFpi+85vhrTzp6tb+sHnUXCwAA+MxYo5/V1n6/SDpWAIps3u2SRjuNBQAA/FaVZ/MXSpIXjzdFZHSH60QAAMB/xurOeDwe8QYoOkfc5w8AQDgYDd/cOqzO86zqXWcBAADB8axX7xljYq6DAACAINmYZ6VxrmMAAIAAWVPtSSp1nQMAAATIaPApHwYEAABylydpr+sQAAAgQFbtnmQ2uc4BAAACtdGTsS2uUwAAgOAYoxbPpMwK10EAAEBwbMpb4R0wXSsl7XQdBgAABMCqLbluyCqvubmhW1aLXecBAAD+M555REqkPEkyA9t/Lmmz40wAAMBPRlttfvQJ6djjgBsbb+60MndJsk6DAQAAv1hZe2syuaRDOlYAJOmp5nnPGmsfdpcLAAD4xurB5JrHlx9/ecJOgGMnv3W/kZ4JPhUAAPCLlZYl15Ynen7thAKQSCRSjc3zrjdGPxIfBwAAkO2sNWbRqjXlN0iJVM9fOMmzAIxtbJqfkFFc0paAAgIAgPTaLNlrVq1eem/vN3/ppAXgqCeb5j9nitsnGNl7JLX5GhEAAKSHVZuM7i4o2T+x52f+vUVPd4zGxps7JT2SSCQWt66fEjNW9daYmJGqJZVJyk9zbAAA0HddstojYzdJarGeWbHqjfLkyX7i7+20BeC4RCKRkvTKsX8yVv0PLdctAAB8k1zzmHGdIV1O+REAAADIXRQAAABCiAIAAEAIUQAAAAghCgAAACFEAQAAIIQoAAAAhBAFAACAEKIAAAAQQhQAAABCiAIAAEAIUQAAAAghCgAAACFEAQAAIIQoAAAAhBAFAACAEKIAAAAQQhQAAABCiAIAAEAIUQAAAAghCgAAACFEAQAAIIQoAAAAhBAFAACAEKIAZDEvwh8fAHeM4e+gbMafXhaLFuS5jgAgxCJe1HUE9AMFIIsVlxW7jgAgxAoKBrmOgH6gAGSxIaOHuI4AIMQGlY1wHQH9QAHIYiPHj3QdAUCIDa+62HUE9EOfPsCJx5siRaZgtrGpeisTk+w4SWWS+BDaoSGjh6iguECHDhxyHQVAyEQj+RpadYHrGIGrq1loXWfo5bCkPVZqlbUtEeOtqKzesbK5ubn7TN942gIQjzcVFit6m5W5UzY17OjUmTZ7eBljVD3zAr372/WuowAImcox07gLIDPkSaowUoWMmZWSvWvrpuE7Z9UsXGwK8pYmk0s6TvWNp/zTW9CwvKFI0Q+tzMOShvmRGv1Xfdk4FZYUuo4BIETy8gZo3OQrXcfAqVUYaZE5dHhDbPot157qN52kAFhzU8PyhKyWSabKz4ToPy8a0eSvXCJjXCcBEA5G4y68UpG8fNdBcAZWGm2NbZpVe8tPpMQX3u9P+EIikfAWXPv8Mmv1gCTeUrJE5YWVGh+b4DoGgBAYOWqKRl1wqesY6DtjrP1BrGbX071LwAkvWtdPe0hGDcFmQzpceMWFqrqIEzYA/DN4yBhdeNm3XMfAObDSdbGaXT/u+bXPC8CChuUNRvbe4GMhLYxR7bzLNGnuJD4OAJBmRiOqJqvmiu9y4V8Ws9J9sekLrzn+2pOOXu0vq0fdxUI6GCNNvHySLv32DC4MBJAWeXkDNHHK13XxzHm8+Wc/Y41+Vlv7/SLp2G2ARTbvdhmNdpsL6VI5qVIjLhiu1jdatXHVRvYJAHDWopF8VZ43VeMuuUqRCBf85ZCqPJu/UNJPo/F4U0TSHa4TIb28aEQXzBqvC2ZeoE+37taOD7Zr99bdOrDngA53HlaqO+U6IoAMYYxRxMtT/oCBKikdoYrRF6u8cjw/8ecoY3VnPB5fHB2g6Bxxn3/uMkZDRw/V0NFDXSdBBlrzQp3rCACCZjR8c+uwOs+zqnedBQAABMezXr1njIm5DgIAAIJkY56VxrmOAQAAAmRNtSep1HUOAAAQIKPBXOIJAEAIeZL2ug4BAAACZNXuSWaT6xwAACBQGz0Z2+I6BQAACI4xavFMyqxwHQQAAATHprwV3gHTtVLSTtdhAABAAKzakuuGrPKamxu6ZbXYdR4AAOA/45lHpETKkyQzsP3nkjY7zgQAAPxktNXmR5+Qjt4GqMbGmzutzF2SrNNgAADAL1bW3ppMLumQjhUASXqqed6zxtqH3eUCAAC+sXowuebx5cdfnrAT4NjJb91vpGeCTwUAAPxipWXJteWJnl87oQAkEolUY/O8643Rj8THAQAAZDtrjVm0ak35DVIi1fMXTvIsAGMbm+YnZBSXtCWggAAAIL02S/aaVauX3tv7zV86aQE46smm+c+Z4vYJRvYeSW2+RgQAAOlh1SajuwtK9k/s+Zl/b9HTHaOx8eZOSY8kEonFreunxIxVvTUmZqRqSWWS8tMcGwAA9F2XrPbI2E2SWqxnVqx6ozx5sp/4ezMBhAvML9dZrlsAzsKaFzi5B5yNB/9qRM68b57yIwAAAJC7KAAAAIQQBQAAgBCiAAAAEEIUAAAAQogCAABACFEAAAAIIQoAAAAhRAEAACCEKAAAAIQQBQAAgBCiAAAAEEIUAAAAQogCAABACFEAAAAIIQoAAAAhRAEAACCEKAAAAIQQBQAAgBCiAAAAEEIUAAAAQogCAABACFEAAAAIIQoAAAAhlGsFoMt1AABAbvI84zpCWuVaAdjrOgAAIDd5UZNynSGdcq0AbHIdAACQm/IGePtdZ0innCoARmpxnQEAkJsKiqPvuc6QTrlVAIxWuM4AAMhN+fmRv3edIZ1yqgB0bdBKSTtd5wAA5JZovpfaPWrg/+M6RzrlVAFoaDDdxmqx6xwAgNxSUlHwz4mrzBHXOdIppwqAJLUP1s+N0WbXOQAAuSFvQKRbRbrJdY50y7kCcPP5pjMl3SXJus4CAMhuRlLp8IJH72wo3e06S7rlXAGQpGummmdl9bDrHACA7DZ4RMHLt99Ycq/rHH7IyQIgSW9N0/1GesZ1DgBAdho4NH/zvurBX3Kdwy85WwASxqTmTdX11upH4uMAAEAfGUmDRwxY1TmprDrXLvzrKeo6gJ+MMVZSYvmb9m1rtUTSaNeZAACZK29A5Ejp8ILFuXrav6ecPQPQ0/yp5rm9pZogq3sktbnOAwDILNF8L1U2qvCFkurosDC8+UtHz3SESsJab8qbismq3hrFjFQtqUxSvutsQNDWvEAfRvgYzygSNam8Ad6BgqLoewXFkb//dMTA/5XLp/tPJnQFwKUF8eVOrkV4snm+kz9n5g2Gq3nrahY6mTe55jHmDUDY5g2jUHwEAAAATkQBAAAghCgAAACEEAUAAIAQogAAABBCFAAAAEKIAgAAQAhRAAAACCEKAAAAIUQBAAAghCgAAACEEAUAAIAQogAAABBCFAAAAEKIAgAAQAhRAAAACCEKAAAAIUQBAAAghCgAAACEEAUAAIAQogAAABBCFAAAAEKIAgAAQAhRAAAACCEKAAAAIUQBAAAghCgAAACEEAUAAIAQogAAABBCFAAAAEKIAgAAQAhRAAAACCEKAAAAIUQBAAAghCgAAACEEAUgWF0O1jzkYM3jmNd/zBsc5vWfy3lDhwIQrL0O1mx3sOZxzOu/cM1rmTdAYZs3dCgAgTKbHKy5Mfg1P1+bef1f09m8VnIwr5g3IGGbN4woAEEytiUUa7pcm3mDY4Nf2xgxb1DCNm8IUQACZFJmRdBreg7WPI55/edy3ojxAl/bpoJf8zjm9Z/LecOIAhCgA6ZrpaSdAS7Zdt7kdasCXO8EzOs7p/NWVu8Idl6rtuS6IcwbkLDNG0YUgAA1Nzd0y2pxYAtaPZJIJFKBrdcL8/rM+bzN3VbBzWs884jEvEEJ27xhRAEImBnY/nNJmwNYautBc/iJANY5Leb1TUbMO6BkfzDzGm21+VHmDVjY5g0bCkDAGhtv7rQyd0myPi5jrcytzc0NHT6u0SfM64uMmffFFxs7jfV/Xll7azK5hHkDFrZ5wybiOkAYvfnusnenX3Rdvoy53I/jW6sHn3p2/t/4cexzwbzplWnzbtnx2rtjRl6WL/kzr6weTK59nHkdCdu8YcIZAEfGTn7rfiM9k/YDG7Ns3OQ3E2k/bj8xb5pk6Lwr1wzzZV4rLUuuLU+k+7j9xbzpkanzhoVxHSDcrLmp4fkHrNVfq/9/FtZY+9Oxk9+6z+WFYafHvP06WMbPKxOrWfiAVXrmtcb8dNXqofdl8IVhzHvusmHenEcByAALGpZfI6slkkaf4yE2W5nbn2qetzydufzCvGctq+aNTV94jYyW2H7MK9nbk2seZ94MFLZ5cxkfAWSAJ5vmP2eK2ycY2XsktZ3Ft7bJmLtNcfvEbHlzkJj3LL41K+ddufax5/JL9k+QzD2yZzGvVZuM7i4o2T8xm94cmLePsnTeXMYZgAyTSCS81vVTYsaq3hoTM1K1pLJjv7zn6P7cpsWY7hXnX/R2MoNPB/cJ8+b2vFLCm1m7M+ZZr16yMVlTLXNsXqs9MnaTpBbrmRWr3ihPZv/pYObN7Xlzy/8Pb8jy3Odgc+AAAAAASUVORK5CYII=;" vertex="1" parent="1">
          <mxGeometry x="-40" y="230" width="277" height="277" as="geometry" />
        </mxCell>
      </root>
    </mxGraphModel>
  </diagram>
</mxfile>
